<svg width="504" height="504" viewBox="0 0 504 504" fill="none" xmlns="http://www.w3.org/2000/svg">
<path d="M504 504H0V0H504V504ZM111 111V394H394V111H111Z" fill="#76D9C5"/>
<path d="M240.923 344.024C229.411 344.024 219.05 341.93 209.84 337.744C200.63 333.349 193.304 327.069 187.862 318.906C182.629 310.743 180.013 300.8 180.013 289.079C180.013 275.264 183.362 264.379 190.06 256.426C196.758 248.472 205.654 242.611 216.747 238.843C227.841 235.075 239.876 232.668 252.854 231.622C266.041 230.366 279.018 229.843 291.786 230.052V257.995C265.622 257.158 246.365 259.356 234.016 264.589C221.666 269.612 215.491 277.357 215.491 287.823C215.491 296.823 218.317 303.521 223.969 307.917C229.829 312.103 237.888 314.196 248.144 314.196C256.517 314.196 263.948 312.522 270.436 309.173C277.134 305.614 282.367 300.486 286.135 293.788C289.903 287.09 291.786 279.031 291.786 269.612V248.576H325.381V339H291.786V319.534C286.554 327.278 279.646 333.349 271.064 337.744C262.482 341.93 252.435 344.024 240.923 344.024ZM175.931 228.168C175.931 216.237 178.861 204.934 184.722 194.259C190.583 183.584 199.269 174.898 210.782 168.2C222.294 161.501 236.213 158.152 252.54 158.152C275.146 158.152 292.519 164.641 304.659 177.619C316.799 190.387 323.602 207.865 325.067 230.052H291.786C290.949 217.284 287.495 207.341 281.425 200.225C275.565 192.899 265.936 189.236 252.54 189.236C242.493 189.236 234.434 191.015 228.364 194.573C222.503 198.131 218.212 202.946 215.491 209.016C212.77 214.877 211.41 221.261 211.41 228.168H175.931Z" fill="#8DFFE8"/>
</svg>
